<svg xmlns="http://www.w3.org/2000/svg" viewBox="0 0 512 512"><g id="Outline"><path d="M488,328h-1.613a79.5,79.5,0,0,0-2.5-9.338l1.393-.8a8,8,0,0,0,2.931-10.924s-7.378-13.6-9.329-15.59a7.879,7.879,0,0,0-9.6-1.2l-1.406.812a79.992,79.992,0,0,0-6.828-6.828,25.7,25.7,0,0,0,1.791-4.12,8.026,8.026,0,0,0-3.906-8.217l-13.86-8a8,8,0,0,0-10.927,2.929l-.8,1.393a79.5,79.5,0,0,0-9.338-2.5V264a8,8,0,0,0-8-8H403.367l-19.475-27.821L418.53,215.59a8,8,0,0,0-1.215-15.482l-48-8a8.019,8.019,0,0,0-3.513.2L359.885,194,323.63,144.4a40.251,40.251,0,0,0-27.765-16.12c-5.844-5.88-16.365-9.448-22.7-7.948-7.891,1.212-53.352,14.257-53.352,14.257l-12.809-22.263,9.742-5.843,19.988,9.913a8,8,0,0,0,10.769-3.709l7.429-15.5,11.981-17.972,5.836,2.594a8,8,0,0,0,9.2-1.959S295.139,64.961,295.492,64a8.022,8.022,0,0,0-2.371-8.978L261.284,28.489a53.88,53.88,0,0,0-85.609,24.353L171.25,66.115C153.5,68,136.17,70.823,118,84.75c-20.818,15.957-30.684,38.674-32.771,51.233l-1.451,8.7,15.782,2.632,1.452-8.706A63.876,63.876,0,0,1,141.6,89.284a24.316,24.316,0,0,0,2.572,11.511c.022.045.045.089.068.134l14.659,27.988-3.493,1.5A31.958,31.958,0,0,0,136,159.83v20.037L91.151,160.646a8,8,0,0,0-11.043,6.039L77.156,184.4a48,48,0,0,0,27.486,51.59l46.612,21.187-83.88,5.991.933-2.8a8.031,8.031,0,0,1,6.8-5.437l26.753-2.675-1.591-15.92L73.51,239.01A24.06,24.06,0,0,0,53.13,255.3l-3.332,10L22.06,272.239a8,8,0,0,0-5.872,9.5,8.191,8.191,0,0,0,7.178,6.241l69.816,7.757,49.341,32.894-1.454-.839a8,8,0,0,0-10.929,2.932l-.8,1.39a79.5,79.5,0,0,0-9.338-2.5V328a8,8,0,0,0-8-8H96a8,8,0,0,0-8,8v1.613a79.5,79.5,0,0,0-9.338,2.5l-.8-1.393a8,8,0,0,0-10.924-2.931s-15.547,9.17-16.219,10.061a8.017,8.017,0,0,0-.571,8.872l.812,1.406a79.992,79.992,0,0,0-6.828,6.828,25.7,25.7,0,0,0-4.12-1.791,8.026,8.026,0,0,0-8.217,3.906l-8,13.863a8,8,0,0,0,2.931,10.924l1.393.8a79.5,79.5,0,0,0-2.5,9.338H24a8,8,0,0,0-8,8v16a8,8,0,0,0,8,8h1.613a79.5,79.5,0,0,0,2.5,9.338l-1.393.8a8,8,0,0,0-2.931,10.924s8.737,15,9.216,15.478a8.026,8.026,0,0,0,9.717,1.312l1.406-.812a79.992,79.992,0,0,0,6.828,6.828l-.769,1.331a7.969,7.969,0,0,0,2.884,11.006l13.86,8a8,8,0,0,0,10.927-2.929l.8-1.393a79.5,79.5,0,0,0,9.338,2.5V488a8,8,0,0,0,8,8h16a8,8,0,0,0,8-8v-1.613a79.5,79.5,0,0,0,9.338-2.5l.8,1.393a8,8,0,0,0,10.924,2.931s15.547-9.17,16.219-10.061a8.017,8.017,0,0,0,.571-8.872l-.812-1.406a79.992,79.992,0,0,0,6.828-6.828l1.331.769a7.969,7.969,0,0,0,11.006-2.884l8-13.863a8,8,0,0,0-2.931-10.924l-1.393-.8a79.5,79.5,0,0,0,2.5-9.338H184a8,8,0,0,0,8-8V400a8,8,0,0,0-8-8h-1.616c-.341-1.674-.746-3.335-1.194-4.984L186.216,384H264a8,8,0,0,0,5.657-2.343l24-24A8,8,0,0,0,296,352V276l22.072-16.558,22.281,30a7.994,7.994,0,0,0-4.562,3.633l-8,13.863a8,8,0,0,0,2.931,10.924l1.393.8a79.5,79.5,0,0,0-2.5,9.338H328a8,8,0,0,0-8,8v16a8,8,0,0,0,8,8h1.613a79.5,79.5,0,0,0,2.5,9.338l-1.393.8a8,8,0,0,0-2.931,10.924s8.737,15,9.216,15.478a8.026,8.026,0,0,0,9.717,1.312l1.406-.812a79.992,79.992,0,0,0,6.828,6.828l-.769,1.331a7.969,7.969,0,0,0,2.884,11.006l13.86,8a8,8,0,0,0,10.927-2.929l.8-1.393a79.5,79.5,0,0,0,9.338,2.5V424a8,8,0,0,0,8,8h16a8,8,0,0,0,8-8v-1.613a79.5,79.5,0,0,0,9.338-2.5l.8,1.393a8,8,0,0,0,10.924,2.931S458,417.333,461.285,414.15c2.408-2.333,2.142-6.155.571-8.872l-.812-1.406a79.992,79.992,0,0,0,6.828-6.828l1.331.769a7.969,7.969,0,0,0,11.006-2.884l8-13.863a8,8,0,0,0-2.931-10.924l-1.393-.8a79.5,79.5,0,0,0,2.5-9.338H488a8,8,0,0,0,8-8V336A8,8,0,0,0,488,328ZM376.552,338.172l18.026,24.268a8,8,0,0,0,11.116,1.707l23-16.669a8,8,0,0,0,1.765-11.2L413,312.393a32.084,32.084,0,1,1-36.447,25.779Zm36.25,1.064-10.1,7.316L354.979,282.3l10.894-7.261ZM368.869,234.619l10.777,15.4-7.907,5.933-.1-.138-12.455-17.039Zm-12.447,27.488-11,7.329-31.515-42.428,11.33-7.553Zm26.241,6.007-.145-.251,6.309-4.733,1.938,2.767c-2.15.474-4.287,1.017-6.394,1.668Q383.515,267.831,382.663,268.114Zm-14.2-59.926,15.447,2.574-34.417,14.755-7.2-9.85Zm-57.753-54.347,27.864,38.121-8.872,6.479-28.285-38.695c2.415-4.246,2.581-11.473,2.573-12.107A23.926,23.926,0,0,1,310.711,153.841ZM218.2,151.692l53.536-15.3c.618.021,3.46-.4,4.266-.4a11.995,11.995,0,0,1,11.981,12.682A12.151,12.151,0,0,1,276.1,160a11.978,11.978,0,0,1-11.023-7.055,8,8,0,0,0-10.229-4.121l-32,12.686a28.532,28.532,0,0,1-36.033-13.765l-.068-.133L179.2,133.2l16.186-8.988,13.678,23.774A8,8,0,0,0,218.2,151.692ZM228.245,62.9l23.63,10.032-5.841,8.759L225.787,67.3a2.533,2.533,0,0,1-.759-3.27h0A2.533,2.533,0,0,1,228.245,62.9Zm-37.391-5A37.881,37.881,0,0,1,251.041,40.78l25.453,21.211-2.554,2.838-6.691-2.974c-.092-.041-.185-.08-.278-.117L235.68,49.222a18.194,18.194,0,0,0-17.673,31.449L237.858,95.56l-1.436,2.873-50.639-25.32ZM173.029,85.08,187.4,110.341l-15.629,8.683-13.65-25.757a8.5,8.5,0,0,1,3.629-11.546h0A8.5,8.5,0,0,1,173.029,85.08ZM92.939,187.03l1.277-7.662,46.417,19.893,50.522,25.26A15.914,15.914,0,0,1,200,238.833V272H176V256a8,8,0,0,0-4.689-7.283l-60.049-27.3A32.044,32.044,0,0,1,92.939,187.03ZM232,344a16,16,0,1,1,16-16A16.019,16.019,0,0,1,232,344Zm16-43.695a31.885,31.885,0,0,0-32,0V280h32ZM106.425,413.215l-7.114-10.672L160,366.13V376a7.96,7.96,0,0,0,1.267,4.31ZM96.884,280.049l-16.155-1.795L160,272.592v48.46l-59.562-39.708A8,8,0,0,0,96.884,280.049ZM160,340.281v7.189l-2.23,1.338c-.246-.223-.479-.456-.728-.676l.814-1.41a8,8,0,0,0,.8-6.072,7.9,7.9,0,0,0-.7-1.728Zm7.6,60.6A8,8,0,0,0,175.55,408a8,8,0,0,0-7.952,7.123,63.451,63.451,0,0,1-4.956,18.518,8,8,0,0,0,3.291,10.115,8,8,0,0,0-10.412,2.2,64.077,64.077,0,0,1-13.568,13.568,8,8,0,0,0-2.2,10.412,8,8,0,0,0-10.116-3.291,63.451,63.451,0,0,1-18.518,4.956A8,8,0,0,0,104,479.55a8,8,0,0,0-7.123-7.952,63.451,63.451,0,0,1-18.518-4.956,8,8,0,0,0-10.116,3.291,8,8,0,0,0-2.2-10.412,64.077,64.077,0,0,1-13.568-13.568,8,8,0,0,0-10.412-2.2,8,8,0,0,0,3.291-10.115A63.451,63.451,0,0,1,40.4,415.123,8,8,0,0,0,32.45,408a8,8,0,0,0,7.952-7.123,63.451,63.451,0,0,1,4.956-18.518,8,8,0,0,0-3.291-10.115,8,8,0,0,0,10.412-2.2,64.077,64.077,0,0,1,13.568-13.568,8,8,0,0,0,2.2-10.412,8,8,0,0,0,10.116,3.291A63.451,63.451,0,0,1,96.877,344.4,8,8,0,0,0,104,336.45a8,8,0,0,0,7.123,7.952,63.451,63.451,0,0,1,18.518,4.956,8,8,0,0,0,10.116-3.291,8,8,0,0,0,2.189,10.408c.452.333.888.685,1.33,1.03L83.884,393.14a8,8,0,0,0-2.54,11.3l16,24a8,8,0,0,0,10.772,2.421l27.211-16.326a31.976,31.976,0,1,1-27.7-38.33l1.8-15.9A48,48,0,1,0,152,408c0-1.129-.054-2.26-.134-3.391l14.906-8.943C167.111,397.394,167.405,399.131,167.6,400.882ZM176,368V288h24v56a8,8,0,0,0,3.562,6.656L224,364.281V368Zm104-19.313L260.687,368H240v-8h0c11.807-2.76,23.929-16.625,23.929-23.707,0-6.668.071-56.293.071-56.293h16ZM285.333,264H216V238.833a31.826,31.826,0,0,0-17.688-28.622L152,187.056V159.83a15.981,15.981,0,0,1,9.7-14.709l4.636-1.989,6.2,11.842a44.533,44.533,0,0,0,56.2,21.409l25.922-10.276A28.017,28.017,0,0,0,276,176h.237a27.848,27.848,0,0,0,14.268-4.066l25.285,34.592-11.434,7.621-25.936-34.917a8,8,0,0,0-7.991-3.074L222.4,186.4l1.833,7.5a8,8,0,0,0,9.34,5.946l35.031-7.006L279.119,207a115.554,115.554,0,0,0-61.843,4.36l5.373,15.071a99.342,99.342,0,0,1,72.645,2.344L308.531,246.6ZM471.6,351.123a63.451,63.451,0,0,1-4.956,18.518,8,8,0,0,0,3.291,10.115,8,8,0,0,0-10.412,2.2,64.077,64.077,0,0,1-13.568,13.568,8,8,0,0,0-2.2,10.412,8,8,0,0,0-10.116-3.291,63.451,63.451,0,0,1-18.518,4.956A8,8,0,0,0,408,415.55a8,8,0,0,0-7.123-7.952,63.451,63.451,0,0,1-18.518-4.956,8,8,0,0,0-10.116,3.291,8,8,0,0,0-2.2-10.412,64.077,64.077,0,0,1-13.568-13.568,8,8,0,0,0-10.412-2.2,8,8,0,0,0,3.291-10.115,63.451,63.451,0,0,1-4.956-18.518A8,8,0,0,0,336.45,344a8,8,0,0,0,7.952-7.123,63.451,63.451,0,0,1,4.956-18.518,8,8,0,0,0-3.291-10.115,8,8,0,0,0,8.158-.129l10.788,14.523a48.144,48.144,0,1,0,36.348-26.166L391.009,282.31a63.194,63.194,0,0,1,9.861-1.908A8,8,0,0,0,408,272.45a8,8,0,0,0,7.123,7.952,63.451,63.451,0,0,1,18.518,4.956,8,8,0,0,0,10.116-3.291,8,8,0,0,0,2.2,10.412,64.077,64.077,0,0,1,13.568,13.568,8,8,0,0,0,10.412,2.2,8,8,0,0,0-3.291,10.115,63.451,63.451,0,0,1,4.956,18.518A8,8,0,0,0,479.55,344,8,8,0,0,0,471.6,351.123Z"/></g></svg>